<svg width="2390" height="1537" viewBox="0 0 2390 1537" fill="none" xmlns="http://www.w3.org/2000/svg">
<path d="M530.5 556.5V294C530.5 274.67 546.17 259 565.5 259H970.769C977.136 259 983.382 260.737 988.835 264.023L1198.67 390.477C1204.12 393.763 1210.36 395.5 1216.73 395.5H1825.5C1844.83 395.5 1860.5 411.17 1860.5 430.5V556.5M530.5 556.5V1245.5C530.5 1264.83 546.17 1280.5 565.5 1280.5H1825.5C1844.83 1280.5 1860.5 1264.83 1860.5 1245.5V556.5M530.5 556.5H1860.5" stroke="white" stroke-width="11"/>
<path d="M634 447L613.264 393.912V447H605.2V384.12H618.256L638.608 437.208V384.12H646.672V447H634ZM676.531 399C682.227 399 686.451 400.536 689.203 403.608C692.019 406.616 693.427 410.904 693.427 416.472V430.68C693.427 436.248 692.019 440.568 689.203 443.64C686.451 446.648 682.227 448.152 676.531 448.152C670.835 448.152 666.579 446.648 663.763 443.64C661.011 440.568 659.635 436.248 659.635 430.68V416.472C659.635 410.904 661.011 406.616 663.763 403.608C666.579 400.536 670.835 399 676.531 399ZM676.531 405.816C673.779 405.816 671.635 406.68 670.099 408.408C668.563 410.136 667.795 412.6 667.795 415.8V431.352C667.795 434.552 668.563 437.016 670.099 438.744C671.635 440.472 673.779 441.336 676.531 441.336C679.283 441.336 681.427 440.472 682.963 438.744C684.499 437.016 685.267 434.552 685.267 431.352V415.704C685.267 412.504 684.499 410.072 682.963 408.408C681.427 406.68 679.283 405.816 676.531 405.816ZM715.758 400.152H728.238V406.872H715.758V434.328C715.758 436.76 716.238 438.52 717.198 439.608C718.222 440.632 719.79 441.144 721.902 441.144C724.59 441.144 727.214 440.824 729.774 440.184L729.966 447C727.15 447.768 724.59 448.152 722.286 448.152C717.166 448.152 713.422 447.032 711.054 444.792C708.75 442.488 707.598 438.776 707.598 433.656V406.872H700.878V400.152H707.598L709.134 387.672H715.758V400.152ZM753.955 399C759.331 399 763.427 400.472 766.243 403.416C769.059 406.36 770.467 410.616 770.467 416.184V426.072H745.795V431.736C745.795 435 746.563 437.368 748.099 438.84C749.699 440.248 752.195 440.952 755.587 440.952C758.915 440.952 763.075 440.44 768.067 439.416L768.259 446.52C762.307 447.608 758.051 448.152 755.491 448.152C749.155 448.152 744.579 446.776 741.763 444.024C739.011 441.272 737.635 437.016 737.635 431.256V416.184C737.635 410.616 738.979 406.36 741.667 403.416C744.419 400.472 748.515 399 753.955 399ZM753.955 405.816C751.459 405.816 749.475 406.616 748.003 408.216C746.531 409.752 745.795 411.992 745.795 414.936V419.544H762.307V415.224C762.307 412.152 761.539 409.816 760.003 408.216C758.531 406.616 756.515 405.816 753.955 405.816ZM794.973 399C797.661 399 800.893 399.384 804.669 400.152L804.477 407.064C801.149 406.296 798.109 405.912 795.357 405.912C789.597 405.912 786.717 407.768 786.717 411.48V412.344C786.717 413.496 787.005 414.424 787.581 415.128C788.221 415.832 789.341 416.568 790.941 417.336L799.965 421.56C805.405 424.12 808.125 427.864 808.125 432.792V434.904C808.061 439.32 806.717 442.648 804.093 444.888C801.533 447.064 797.469 448.152 791.901 448.152C789.021 448.152 784.893 447.48 779.517 446.136L779.901 438.84C784.701 440.248 788.637 440.952 791.709 440.952C794.845 440.952 797.021 440.536 798.237 439.704C799.453 438.808 800.061 437.368 800.061 435.384V434.424C800.061 432.888 799.741 431.672 799.101 430.776C798.525 429.88 797.533 429.112 796.125 428.472L786.812 424.344C783.997 423.064 781.917 421.528 780.573 419.736C779.293 417.944 778.653 415.864 778.653 413.496V412.152C778.781 407.8 780.125 404.536 782.685 402.36C785.309 400.12 789.405 399 794.973 399Z" fill="white"/>
</svg>
