<svg width="4321" height="1405" viewBox="0 0 4321 1405" fill="none" xmlns="http://www.w3.org/2000/svg">
<circle cx="2277.5" cy="705.5" r="309" fill="#09244B" stroke="white" stroke-width="11"/>
<path d="M531.034 1067.97C538.65 1067.97 544.506 1070.14 548.602 1074.5C552.762 1078.78 554.842 1084.99 554.842 1093.12V1108.86C554.842 1116.67 552.762 1122.69 548.602 1126.91C544.506 1131.07 538.49 1133.15 530.554 1133.15C525.114 1133.15 519.418 1132.96 513.466 1132.58V1068.35C519.226 1068.1 525.082 1067.97 531.034 1067.97ZM530.554 1074.88C528.57 1074.88 525.594 1074.94 521.626 1075.07V1125.57C525.402 1125.95 528.378 1126.14 530.554 1126.14C535.482 1126.14 539.386 1124.74 542.266 1121.92C545.21 1119.04 546.682 1114.91 546.682 1109.54V1092.54C546.682 1086.72 545.274 1082.34 542.458 1079.39C539.642 1076.38 535.674 1074.88 530.554 1074.88ZM575.989 1085.15V1132H567.829V1085.15H575.989ZM571.861 1066.24C573.589 1066.24 574.901 1066.62 575.797 1067.39C576.757 1068.16 577.237 1069.25 577.237 1070.66V1073.44C577.237 1074.85 576.757 1075.94 575.797 1076.7C574.901 1077.41 573.589 1077.76 571.861 1077.76C570.197 1077.76 568.885 1077.41 567.925 1076.7C567.029 1075.94 566.581 1074.85 566.581 1073.44V1070.66C566.581 1069.25 567.029 1068.16 567.925 1067.39C568.885 1066.62 570.197 1066.24 571.861 1066.24ZM602.832 1084C605.52 1084 608.752 1084.38 612.528 1085.15L612.336 1092.06C609.008 1091.3 605.968 1090.91 603.216 1090.91C597.456 1090.91 594.576 1092.77 594.576 1096.48V1097.34C594.576 1098.5 594.864 1099.42 595.44 1100.13C596.08 1100.83 597.2 1101.57 598.8 1102.34L607.824 1106.56C613.264 1109.12 615.984 1112.86 615.984 1117.79V1119.9C615.92 1124.32 614.576 1127.65 611.952 1129.89C609.392 1132.06 605.328 1133.15 599.76 1133.15C596.88 1133.15 592.752 1132.48 587.376 1131.14L587.76 1123.84C592.56 1125.25 596.496 1125.95 599.568 1125.95C602.704 1125.95 604.88 1125.54 606.096 1124.7C607.312 1123.81 607.92 1122.37 607.92 1120.38V1119.42C607.92 1117.89 607.6 1116.67 606.96 1115.78C606.384 1114.88 605.392 1114.11 603.984 1113.47L594.672 1109.34C591.856 1108.06 589.776 1106.53 588.432 1104.74C587.152 1102.94 586.512 1100.86 586.512 1098.5V1097.15C586.64 1092.8 587.984 1089.54 590.544 1087.36C593.168 1085.12 597.264 1084 602.832 1084ZM642.464 1084C645.344 1084 648.608 1084.42 652.256 1085.25L652.064 1092.45C648.352 1091.62 645.152 1091.2 642.464 1091.2C639.456 1091.2 637.152 1092.03 635.552 1093.7C634.016 1095.36 633.248 1097.73 633.248 1100.8V1116.26C633.248 1119.46 634.048 1121.89 635.648 1123.55C637.312 1125.15 639.584 1125.95 642.464 1125.95C644.256 1125.95 645.824 1125.86 647.168 1125.66C648.512 1125.47 650.144 1125.15 652.064 1124.7L652.256 1131.9C648.352 1132.74 645.056 1133.15 642.368 1133.15C630.848 1133.15 625.088 1127.33 625.088 1115.68V1101.47C625.088 1089.82 630.88 1084 642.464 1084ZM679.39 1084C685.086 1084 689.31 1085.54 692.062 1088.61C694.878 1091.62 696.286 1095.9 696.286 1101.47V1115.68C696.286 1121.25 694.878 1125.57 692.062 1128.64C689.31 1131.65 685.086 1133.15 679.39 1133.15C673.694 1133.15 669.438 1131.65 666.622 1128.64C663.87 1125.57 662.494 1121.25 662.494 1115.68V1101.47C662.494 1095.9 663.87 1091.62 666.622 1088.61C669.438 1085.54 673.694 1084 679.39 1084ZM679.39 1090.82C676.638 1090.82 674.494 1091.68 672.958 1093.41C671.422 1095.14 670.654 1097.6 670.654 1100.8V1116.35C670.654 1119.55 671.422 1122.02 672.958 1123.74C674.494 1125.47 676.638 1126.34 679.39 1126.34C682.142 1126.34 684.286 1125.47 685.822 1123.74C687.358 1122.02 688.126 1119.55 688.126 1116.35V1100.7C688.126 1097.5 687.358 1095.07 685.822 1093.41C684.286 1091.68 682.142 1090.82 679.39 1090.82ZM742.246 1085.15L727.75 1132H717.094L702.694 1085.15H711.334L722.47 1126.05L733.606 1085.15H742.246ZM764.971 1084C770.347 1084 774.443 1085.47 777.259 1088.42C780.075 1091.36 781.483 1095.62 781.483 1101.18V1111.07H756.811V1116.74C756.811 1120 757.579 1122.37 759.115 1123.84C760.715 1125.25 763.211 1125.95 766.603 1125.95C769.931 1125.95 774.091 1125.44 779.083 1124.42L779.275 1131.52C773.323 1132.61 769.067 1133.15 766.507 1133.15C760.171 1133.15 755.595 1131.78 752.779 1129.02C750.027 1126.27 748.651 1122.02 748.651 1116.26V1101.18C748.651 1095.62 749.995 1091.36 752.683 1088.42C755.435 1085.47 759.531 1084 764.971 1084ZM764.971 1090.82C762.475 1090.82 760.491 1091.62 759.019 1093.22C757.547 1094.75 756.811 1096.99 756.811 1099.94V1104.54H773.323V1100.22C773.323 1097.15 772.555 1094.82 771.019 1093.22C769.547 1091.62 767.531 1090.82 764.971 1090.82ZM812.996 1084C813.892 1084 814.596 1084.06 815.108 1084.19V1093.41C814.148 1093.22 812.9 1093.12 811.364 1093.12C806.884 1093.12 803.332 1095.36 800.708 1099.84V1132H792.548V1085.15H800.228V1092.16C801.956 1089.54 803.876 1087.52 805.988 1086.11C808.164 1084.7 810.5 1084 812.996 1084ZM859.818 1085.15L838.314 1149.76H830.154L836.298 1132H833.226L819.882 1085.15H828.81L838.89 1126.14L851.37 1085.15H859.818Z" fill="white"/>
<path d="M1267.02 1096.97C1274.63 1096.97 1280.49 1099.14 1284.59 1103.5C1288.75 1107.78 1290.83 1113.99 1290.83 1122.12V1137.86C1290.83 1145.67 1288.75 1151.69 1284.59 1155.91C1280.49 1160.07 1274.47 1162.15 1266.54 1162.15C1261.1 1162.15 1255.4 1161.96 1249.45 1161.58V1097.35C1255.21 1097.1 1261.07 1096.97 1267.02 1096.97ZM1266.54 1103.88C1264.55 1103.88 1261.58 1103.94 1257.61 1104.07V1154.57C1261.39 1154.95 1264.36 1155.14 1266.54 1155.14C1271.47 1155.14 1275.37 1153.74 1278.25 1150.92C1281.19 1148.04 1282.67 1143.91 1282.67 1138.54V1121.54C1282.67 1115.72 1281.26 1111.34 1278.44 1108.39C1275.63 1105.38 1271.66 1103.88 1266.54 1103.88ZM1311.97 1114.15V1161H1303.81V1114.15H1311.97ZM1307.85 1095.24C1309.57 1095.24 1310.89 1095.62 1311.78 1096.39C1312.74 1097.16 1313.22 1098.25 1313.22 1099.66V1102.44C1313.22 1103.85 1312.74 1104.94 1311.78 1105.7C1310.89 1106.41 1309.57 1106.76 1307.85 1106.76C1306.18 1106.76 1304.87 1106.41 1303.91 1105.7C1303.01 1104.94 1302.57 1103.85 1302.57 1102.44V1099.66C1302.57 1098.25 1303.01 1097.16 1303.91 1096.39C1304.87 1095.62 1306.18 1095.24 1307.85 1095.24ZM1339.68 1113C1345.18 1113 1349.18 1114.25 1351.68 1116.74C1354.24 1119.18 1355.52 1123.08 1355.52 1128.46V1161H1347.74V1153.51C1344.03 1159.27 1339.84 1162.15 1335.17 1162.15C1331.46 1162.15 1328.48 1160.87 1326.24 1158.31C1324.06 1155.75 1322.98 1152.26 1322.98 1147.85V1145.16C1322.98 1141.32 1324.29 1138.15 1326.91 1135.66C1329.54 1133.1 1333.06 1131.82 1337.47 1131.82C1339.9 1131.82 1343.2 1132.23 1347.36 1133.06V1127.78C1347.36 1125.03 1346.72 1123.05 1345.44 1121.83C1344.22 1120.62 1342.3 1120.01 1339.68 1120.01C1336.61 1120.01 1332.29 1120.49 1326.72 1121.45V1114.44C1332.74 1113.48 1337.06 1113 1339.68 1113ZM1339.49 1138.15C1336.8 1138.15 1334.75 1138.86 1333.34 1140.26C1331.94 1141.67 1331.23 1143.66 1331.23 1146.22V1147.27C1331.23 1149.64 1331.78 1151.5 1332.86 1152.84C1333.95 1154.18 1335.33 1154.86 1336.99 1154.86C1338.72 1154.86 1340.48 1154.12 1342.27 1152.65C1344.13 1151.11 1345.82 1148.97 1347.36 1146.22V1138.82C1344.93 1138.38 1342.3 1138.15 1339.49 1138.15ZM1383.86 1113C1386.68 1113 1389.24 1113.42 1391.54 1114.25L1406.52 1114.06V1121.26L1398.65 1121.06C1399.73 1123.37 1400.28 1125.77 1400.28 1128.26V1130.38C1400.28 1135.05 1398.84 1138.82 1395.96 1141.7C1393.08 1144.52 1389.05 1145.93 1383.86 1145.93C1380.53 1145.93 1377.81 1145.61 1375.7 1144.97C1374.29 1146.12 1373.59 1147.43 1373.59 1148.9V1149.48C1373.59 1150.5 1373.91 1151.27 1374.55 1151.78C1375.19 1152.23 1376.44 1152.52 1378.29 1152.65L1392.6 1153.7C1395.54 1153.96 1397.91 1155.08 1399.7 1157.06C1401.56 1158.98 1402.49 1161.42 1402.49 1164.36V1167.91C1402.49 1170.66 1401.94 1172.9 1400.85 1174.63C1399.77 1176.36 1397.75 1177.67 1394.81 1178.57C1391.93 1179.46 1387.77 1179.91 1382.33 1179.91C1380.28 1179.91 1377.85 1179.69 1375.03 1179.24C1372.28 1178.79 1369.65 1178.22 1367.16 1177.51L1367.45 1169.93C1373.4 1171.91 1378.45 1172.9 1382.61 1172.9C1386.07 1172.9 1388.63 1172.68 1390.29 1172.23C1392.02 1171.85 1393.14 1171.24 1393.65 1170.41C1394.23 1169.58 1394.52 1168.33 1394.52 1166.66V1165.9C1394.52 1164.42 1394.1 1163.27 1393.27 1162.44C1392.5 1161.61 1391.38 1161.16 1389.91 1161.1L1375.51 1160.14C1372.44 1159.94 1370.1 1159.08 1368.5 1157.54C1366.9 1156.01 1366.1 1153.93 1366.1 1151.3V1149.38C1366.1 1147.98 1366.45 1146.6 1367.16 1145.26C1367.93 1143.91 1369.01 1142.73 1370.42 1141.7C1369.33 1140.49 1368.53 1138.95 1368.02 1137.1C1367.57 1135.18 1367.35 1132.84 1367.35 1130.09V1127.98C1367.35 1123.43 1368.76 1119.82 1371.57 1117.13C1374.39 1114.38 1378.49 1113 1383.86 1113ZM1383.86 1119.82C1381.17 1119.82 1379.09 1120.52 1377.62 1121.93C1376.21 1123.27 1375.51 1125.22 1375.51 1127.78V1130.95C1375.51 1133.32 1375.7 1135.08 1376.09 1136.23C1376.53 1137.32 1377.3 1138.09 1378.39 1138.54C1379.48 1138.92 1381.11 1139.11 1383.29 1139.11C1386.23 1139.11 1388.44 1138.41 1389.91 1137C1391.38 1135.59 1392.12 1133.58 1392.12 1130.95V1128.07C1392.12 1125.38 1391.73 1123.05 1390.97 1121.06C1390.2 1120.74 1389.14 1120.46 1387.8 1120.2C1386.52 1119.94 1385.21 1119.82 1383.86 1119.82ZM1434.61 1113C1438.7 1113 1441.84 1114.41 1444.01 1117.22C1446.25 1119.98 1447.37 1123.91 1447.37 1129.03V1161H1439.21V1130.18C1439.21 1123.78 1437.13 1120.58 1432.97 1120.58C1431.12 1120.58 1429.23 1121.29 1427.31 1122.7C1425.39 1124.1 1423.73 1126.02 1422.32 1128.46V1161H1414.16V1114.15H1421.84V1121.16C1423.57 1118.54 1425.49 1116.52 1427.6 1115.11C1429.77 1113.7 1432.11 1113 1434.61 1113ZM1476.78 1113C1482.48 1113 1486.7 1114.54 1489.45 1117.61C1492.27 1120.62 1493.68 1124.9 1493.68 1130.47V1144.68C1493.68 1150.25 1492.27 1154.57 1489.45 1157.64C1486.7 1160.65 1482.48 1162.15 1476.78 1162.15C1471.09 1162.15 1466.83 1160.65 1464.01 1157.64C1461.26 1154.57 1459.89 1150.25 1459.89 1144.68V1130.47C1459.89 1124.9 1461.26 1120.62 1464.01 1117.61C1466.83 1114.54 1471.09 1113 1476.78 1113ZM1476.78 1119.82C1474.03 1119.82 1471.89 1120.68 1470.35 1122.41C1468.81 1124.14 1468.05 1126.6 1468.05 1129.8V1145.35C1468.05 1148.55 1468.81 1151.02 1470.35 1152.74C1471.89 1154.47 1474.03 1155.34 1476.78 1155.34C1479.53 1155.34 1481.68 1154.47 1483.21 1152.74C1484.75 1151.02 1485.52 1148.55 1485.52 1145.35V1129.7C1485.52 1126.5 1484.75 1124.07 1483.21 1122.41C1481.68 1120.68 1479.53 1119.82 1476.78 1119.82ZM1519.57 1113C1522.25 1113 1525.49 1113.38 1529.26 1114.15L1529.07 1121.06C1525.74 1120.3 1522.7 1119.91 1519.95 1119.91C1514.19 1119.91 1511.31 1121.77 1511.31 1125.48V1126.34C1511.31 1127.5 1511.6 1128.42 1512.17 1129.13C1512.81 1129.83 1513.93 1130.57 1515.53 1131.34L1524.56 1135.56C1530 1138.12 1532.72 1141.86 1532.72 1146.79V1148.9C1532.65 1153.32 1531.31 1156.65 1528.69 1158.89C1526.13 1161.06 1522.06 1162.15 1516.49 1162.15C1513.61 1162.15 1509.49 1161.48 1504.11 1160.14L1504.49 1152.84C1509.29 1154.25 1513.23 1154.95 1516.3 1154.95C1519.44 1154.95 1521.61 1154.54 1522.83 1153.7C1524.05 1152.81 1524.65 1151.37 1524.65 1149.38V1148.42C1524.65 1146.89 1524.33 1145.67 1523.69 1144.78C1523.12 1143.88 1522.13 1143.11 1520.72 1142.47L1511.41 1138.34C1508.59 1137.06 1506.51 1135.53 1505.17 1133.74C1503.89 1131.94 1503.25 1129.86 1503.25 1127.5V1126.15C1503.37 1121.8 1504.72 1118.54 1507.28 1116.36C1509.9 1114.12 1514 1113 1519.57 1113ZM1551.41 1114.15V1161H1543.25V1114.15H1551.41ZM1547.28 1095.24C1549.01 1095.24 1550.32 1095.62 1551.22 1096.39C1552.18 1097.16 1552.66 1098.25 1552.66 1099.66V1102.44C1552.66 1103.85 1552.18 1104.94 1551.22 1105.7C1550.32 1106.41 1549.01 1106.76 1547.28 1106.76C1545.62 1106.76 1544.31 1106.41 1543.35 1105.7C1542.45 1104.94 1542 1103.85 1542 1102.44V1099.66C1542 1098.25 1542.45 1097.16 1543.35 1096.39C1544.31 1095.62 1545.62 1095.24 1547.28 1095.24ZM1578.25 1113C1580.94 1113 1584.17 1113.38 1587.95 1114.15L1587.76 1121.06C1584.43 1120.3 1581.39 1119.91 1578.64 1119.91C1572.88 1119.91 1570 1121.77 1570 1125.48V1126.34C1570 1127.5 1570.29 1128.42 1570.86 1129.13C1571.5 1129.83 1572.62 1130.57 1574.22 1131.34L1583.25 1135.56C1588.69 1138.12 1591.41 1141.86 1591.41 1146.79V1148.9C1591.34 1153.32 1590 1156.65 1587.37 1158.89C1584.81 1161.06 1580.75 1162.15 1575.18 1162.15C1572.3 1162.15 1568.17 1161.48 1562.8 1160.14L1563.18 1152.84C1567.98 1154.25 1571.92 1154.95 1574.99 1154.95C1578.13 1154.95 1580.3 1154.54 1581.52 1153.7C1582.73 1152.81 1583.34 1151.37 1583.34 1149.38V1148.42C1583.34 1146.89 1583.02 1145.67 1582.38 1144.78C1581.81 1143.88 1580.81 1143.11 1579.41 1142.47L1570.09 1138.34C1567.28 1137.06 1565.2 1135.53 1563.85 1133.74C1562.57 1131.94 1561.93 1129.86 1561.93 1127.5V1126.15C1562.06 1121.8 1563.41 1118.54 1565.97 1116.36C1568.59 1114.12 1572.69 1113 1578.25 1113Z" fill="white"/>
<path d="M2142.76 674.968C2146.21 674.968 2150.72 675.48 2156.29 676.504L2156.1 683.704C2150.85 682.68 2146.4 682.168 2142.76 682.168C2139.04 682.168 2136.36 682.904 2134.69 684.376C2133.09 685.848 2132.29 688.088 2132.29 691.096V693.592C2132.29 695.192 2132.48 696.472 2132.87 697.432C2133.32 698.328 2134.08 699.128 2135.17 699.832C2136.26 700.472 2137.89 701.144 2140.07 701.848L2149 704.824C2153.28 706.296 2156.29 708.248 2158.02 710.68C2159.81 713.112 2160.71 716.664 2160.71 721.336V723.16C2160.71 728.856 2159.04 733.112 2155.72 735.928C2152.45 738.744 2147.08 740.152 2139.59 740.152C2135.94 740.152 2131.27 739.512 2125.57 738.232L2125.76 730.84C2131.08 732.12 2135.62 732.76 2139.4 732.76C2144.2 732.76 2147.59 732.056 2149.57 730.648C2151.56 729.176 2152.55 726.904 2152.55 723.832V720.664C2152.55 718.424 2152.04 716.728 2151.01 715.576C2150.05 714.36 2148.32 713.336 2145.83 712.504L2135.94 709.24C2131.52 707.768 2128.45 705.88 2126.72 703.576C2125 701.208 2124.13 697.656 2124.13 692.92V691.864C2124.13 686.296 2125.6 682.104 2128.55 679.288C2131.56 676.408 2136.29 674.968 2142.76 674.968ZM2180.38 692.152H2192.86V698.872H2180.38V726.328C2180.38 728.76 2180.86 730.52 2181.82 731.608C2182.85 732.632 2184.41 733.144 2186.53 733.144C2189.21 733.144 2191.84 732.824 2194.4 732.184L2194.59 739C2191.77 739.768 2189.21 740.152 2186.91 740.152C2181.79 740.152 2178.05 739.032 2175.68 736.792C2173.37 734.488 2172.22 730.776 2172.22 725.656V698.872H2165.5V692.152H2172.22L2173.76 679.672H2180.38V692.152ZM2223.67 691C2224.56 691 2225.27 691.064 2225.78 691.192V700.408C2224.82 700.216 2223.57 700.12 2222.04 700.12C2217.56 700.12 2214 702.36 2211.38 706.84V739H2203.22V692.152H2210.9V699.16C2212.63 696.536 2214.55 694.52 2216.66 693.112C2218.84 691.704 2221.17 691 2223.67 691ZM2247.34 691C2252.84 691 2256.84 692.248 2259.34 694.744C2261.9 697.176 2263.18 701.08 2263.18 706.456V739H2255.4V731.512C2251.69 737.272 2247.5 740.152 2242.82 740.152C2239.11 740.152 2236.14 738.872 2233.9 736.312C2231.72 733.752 2230.63 730.264 2230.63 725.848V723.16C2230.63 719.32 2231.94 716.152 2234.57 713.656C2237.19 711.096 2240.71 709.816 2245.13 709.816C2247.56 709.816 2250.86 710.232 2255.02 711.064V705.784C2255.02 703.032 2254.38 701.048 2253.1 699.832C2251.88 698.616 2249.96 698.008 2247.34 698.008C2244.26 698.008 2239.94 698.488 2234.38 699.448V692.44C2240.39 691.48 2244.71 691 2247.34 691ZM2247.14 716.152C2244.46 716.152 2242.41 716.856 2241 718.264C2239.59 719.672 2238.89 721.656 2238.89 724.216V725.272C2238.89 727.64 2239.43 729.496 2240.52 730.84C2241.61 732.184 2242.98 732.856 2244.65 732.856C2246.38 732.856 2248.14 732.12 2249.93 730.648C2251.78 729.112 2253.48 726.968 2255.02 724.216V716.824C2252.58 716.376 2249.96 716.152 2247.14 716.152ZM2285.76 692.152H2298.24V698.872H2285.76V726.328C2285.76 728.76 2286.24 730.52 2287.2 731.608C2288.22 732.632 2289.79 733.144 2291.9 733.144C2294.59 733.144 2297.21 732.824 2299.77 732.184L2299.97 739C2297.15 739.768 2294.59 740.152 2292.29 740.152C2287.17 740.152 2283.42 739.032 2281.05 736.792C2278.75 734.488 2277.6 730.776 2277.6 725.656V698.872H2270.88V692.152H2277.6L2279.13 679.672H2285.76V692.152ZM2323.96 691C2329.33 691 2333.43 692.472 2336.24 695.416C2339.06 698.36 2340.47 702.616 2340.47 708.184V718.072H2315.8V723.736C2315.8 727 2316.56 729.368 2318.1 730.84C2319.7 732.248 2322.2 732.952 2325.59 732.952C2328.92 732.952 2333.08 732.44 2338.07 731.416L2338.26 738.52C2332.31 739.608 2328.05 740.152 2325.49 740.152C2319.16 740.152 2314.58 738.776 2311.76 736.024C2309.01 733.272 2307.64 729.016 2307.64 723.256V708.184C2307.64 702.616 2308.98 698.36 2311.67 695.416C2314.42 692.472 2318.52 691 2323.96 691ZM2323.96 697.816C2321.46 697.816 2319.48 698.616 2318 700.216C2316.53 701.752 2315.8 703.992 2315.8 706.936V711.544H2332.31V707.224C2332.31 704.152 2331.54 701.816 2330 700.216C2328.53 698.616 2326.52 697.816 2323.96 697.816ZM2366.89 691C2369.71 691 2372.27 691.416 2374.57 692.248L2389.55 692.056V699.256L2381.68 699.064C2382.76 701.368 2383.31 703.768 2383.31 706.264V708.376C2383.31 713.048 2381.87 716.824 2378.99 719.704C2376.11 722.52 2372.08 723.928 2366.89 723.928C2363.56 723.928 2360.84 723.608 2358.73 722.968C2357.32 724.12 2356.62 725.432 2356.62 726.904V727.48C2356.62 728.504 2356.94 729.272 2357.58 729.784C2358.22 730.232 2359.47 730.52 2361.32 730.648L2375.63 731.704C2378.57 731.96 2380.94 733.08 2382.73 735.064C2384.59 736.984 2385.52 739.416 2385.52 742.36V745.912C2385.52 748.664 2384.97 750.904 2383.88 752.632C2382.8 754.36 2380.78 755.672 2377.84 756.568C2374.96 757.464 2370.8 757.912 2365.36 757.912C2363.31 757.912 2360.88 757.688 2358.06 757.24C2355.31 756.792 2352.68 756.216 2350.19 755.512L2350.48 747.928C2356.43 749.912 2361.48 750.904 2365.64 750.904C2369.1 750.904 2371.66 750.68 2373.32 750.232C2375.05 749.848 2376.17 749.24 2376.68 748.408C2377.26 747.576 2377.55 746.328 2377.55 744.664V743.896C2377.55 742.424 2377.13 741.272 2376.3 740.44C2375.53 739.608 2374.41 739.16 2372.94 739.096L2358.54 738.136C2355.47 737.944 2353.13 737.08 2351.53 735.544C2349.93 734.008 2349.13 731.928 2349.13 729.304V727.384C2349.13 725.976 2349.48 724.6 2350.19 723.256C2350.96 721.912 2352.04 720.728 2353.45 719.704C2352.36 718.488 2351.56 716.952 2351.05 715.096C2350.6 713.176 2350.38 710.84 2350.38 708.088V705.976C2350.38 701.432 2351.79 697.816 2354.6 695.128C2357.42 692.376 2361.52 691 2366.89 691ZM2366.89 697.816C2364.2 697.816 2362.12 698.52 2360.65 699.928C2359.24 701.272 2358.54 703.224 2358.54 705.784V708.952C2358.54 711.32 2358.73 713.08 2359.12 714.232C2359.56 715.32 2360.33 716.088 2361.42 716.536C2362.51 716.92 2364.14 717.112 2366.32 717.112C2369.26 717.112 2371.47 716.408 2372.94 715C2374.41 713.592 2375.15 711.576 2375.15 708.952V706.072C2375.15 703.384 2374.76 701.048 2374 699.064C2373.23 698.744 2372.17 698.456 2370.83 698.2C2369.55 697.944 2368.24 697.816 2366.89 697.816ZM2434.27 692.152L2412.77 756.76H2404.61L2410.75 739H2407.68L2394.34 692.152H2403.26L2413.34 733.144L2425.82 692.152H2434.27Z" fill="white"/>
<path d="M3011.31 233.968C3018.93 233.968 3024.79 236.144 3028.88 240.496C3033.04 244.784 3035.12 250.992 3035.12 259.12V274.864C3035.12 282.672 3033.04 288.688 3028.88 292.912C3024.79 297.072 3018.77 299.152 3010.83 299.152C3005.39 299.152 2999.7 298.96 2993.75 298.576V234.352C2999.51 234.096 3005.36 233.968 3011.31 233.968ZM3010.83 240.88C3008.85 240.88 3005.87 240.944 3001.91 241.072V291.568C3005.68 291.952 3008.66 292.144 3010.83 292.144C3015.76 292.144 3019.67 290.736 3022.55 287.92C3025.49 285.04 3026.96 280.912 3026.96 275.536V258.544C3026.96 252.72 3025.55 248.336 3022.74 245.392C3019.92 242.384 3015.95 240.88 3010.83 240.88ZM3063.47 250C3068.85 250 3072.94 251.472 3075.76 254.416C3078.57 257.36 3079.98 261.616 3079.98 267.184V277.072H3055.31V282.736C3055.31 286 3056.08 288.368 3057.61 289.84C3059.21 291.248 3061.71 291.952 3065.1 291.952C3068.43 291.952 3072.59 291.44 3077.58 290.416L3077.77 297.52C3071.82 298.608 3067.57 299.152 3065.01 299.152C3058.67 299.152 3054.09 297.776 3051.28 295.024C3048.53 292.272 3047.15 288.016 3047.15 282.256V267.184C3047.15 261.616 3048.49 257.36 3051.18 254.416C3053.93 251.472 3058.03 250 3063.47 250ZM3063.47 256.816C3060.97 256.816 3058.99 257.616 3057.52 259.216C3056.05 260.752 3055.31 262.992 3055.31 265.936V270.544H3071.82V266.224C3071.82 263.152 3071.05 260.816 3069.52 259.216C3068.05 257.616 3066.03 256.816 3063.47 256.816ZM3099.21 232.432V298H3091.05V232.432H3099.21ZM3120.77 251.152V298H3112.61V251.152H3120.77ZM3116.64 232.24C3118.37 232.24 3119.68 232.624 3120.58 233.392C3121.54 234.16 3122.02 235.248 3122.02 236.656V239.44C3122.02 240.848 3121.54 241.936 3120.58 242.704C3119.68 243.408 3118.37 243.76 3116.64 243.76C3114.98 243.76 3113.67 243.408 3112.71 242.704C3111.81 241.936 3111.36 240.848 3111.36 239.44V236.656C3111.36 235.248 3111.81 234.16 3112.71 233.392C3113.67 232.624 3114.98 232.24 3116.64 232.24ZM3167.97 251.152L3153.47 298H3142.81L3128.41 251.152H3137.05L3148.19 292.048L3159.33 251.152H3167.97ZM3190.69 250C3196.07 250 3200.16 251.472 3202.98 254.416C3205.79 257.36 3207.2 261.616 3207.2 267.184V277.072H3182.53V282.736C3182.53 286 3183.3 288.368 3184.83 289.84C3186.43 291.248 3188.93 291.952 3192.32 291.952C3195.65 291.952 3199.81 291.44 3204.8 290.416L3204.99 297.52C3199.04 298.608 3194.79 299.152 3192.23 299.152C3185.89 299.152 3181.31 297.776 3178.5 295.024C3175.75 292.272 3174.37 288.016 3174.37 282.256V267.184C3174.37 261.616 3175.71 257.36 3178.4 254.416C3181.15 251.472 3185.25 250 3190.69 250ZM3190.69 256.816C3188.19 256.816 3186.21 257.616 3184.74 259.216C3183.27 260.752 3182.53 262.992 3182.53 265.936V270.544H3199.04V266.224C3199.04 263.152 3198.27 260.816 3196.74 259.216C3195.27 257.616 3193.25 256.816 3190.69 256.816ZM3238.71 250C3239.61 250 3240.31 250.064 3240.83 250.192V259.408C3239.87 259.216 3238.62 259.12 3237.08 259.12C3232.6 259.12 3229.05 261.36 3226.43 265.84V298H3218.27V251.152H3225.95V258.16C3227.67 255.536 3229.59 253.52 3231.71 252.112C3233.88 250.704 3236.22 250 3238.71 250ZM3285.54 251.152L3264.03 315.76H3255.87L3262.02 298H3258.94L3245.6 251.152H3254.53L3264.61 292.144L3277.09 251.152H3285.54Z" fill="white"/>
<path d="M3733.1 233.968C3736.56 233.968 3741.07 234.48 3746.64 235.504L3746.44 242.704C3741.2 241.68 3736.75 241.168 3733.1 241.168C3729.39 241.168 3726.7 241.904 3725.04 243.376C3723.44 244.848 3722.64 247.088 3722.64 250.096V252.592C3722.64 254.192 3722.83 255.472 3723.21 256.432C3723.66 257.328 3724.43 258.128 3725.52 258.832C3726.6 259.472 3728.24 260.144 3730.41 260.848L3739.34 263.824C3743.63 265.296 3746.64 267.248 3748.36 269.68C3750.16 272.112 3751.05 275.664 3751.05 280.336V282.16C3751.05 287.856 3749.39 292.112 3746.06 294.928C3742.8 297.744 3737.42 299.152 3729.93 299.152C3726.28 299.152 3721.61 298.512 3715.92 297.232L3716.11 289.84C3721.42 291.12 3725.96 291.76 3729.74 291.76C3734.54 291.76 3737.93 291.056 3739.92 289.648C3741.9 288.176 3742.89 285.904 3742.89 282.832V279.664C3742.89 277.424 3742.38 275.728 3741.36 274.576C3740.4 273.36 3738.67 272.336 3736.17 271.504L3726.28 268.24C3721.87 266.768 3718.8 264.88 3717.07 262.576C3715.34 260.208 3714.48 256.656 3714.48 251.92V250.864C3714.48 245.296 3715.95 241.104 3718.89 238.288C3721.9 235.408 3726.64 233.968 3733.1 233.968ZM3793.77 298H3786.09V291.28C3784.36 293.84 3782.44 295.792 3780.33 297.136C3778.21 298.48 3775.97 299.152 3773.61 299.152C3769.7 299.152 3766.63 297.808 3764.39 295.12C3762.21 292.368 3761.13 288.368 3761.13 283.12V251.152H3769.29V281.68C3769.29 285.072 3769.8 287.568 3770.82 289.168C3771.91 290.768 3773.38 291.568 3775.24 291.568C3776.97 291.568 3778.76 290.896 3780.61 289.552C3782.53 288.144 3784.2 286.224 3785.61 283.792V251.152H3793.77V298ZM3827.6 250C3831.64 250 3834.77 251.376 3837.01 254.128C3839.25 256.88 3840.37 260.848 3840.37 266.032V283.12C3840.37 288.112 3839.06 292.048 3836.44 294.928C3833.88 297.744 3830.39 299.152 3825.97 299.152C3824.31 299.152 3822.52 298.8 3820.6 298.096C3818.74 297.456 3817.01 296.688 3815.41 295.792V315.76H3807.25V251.152H3814.93V257.968C3818.45 252.656 3822.68 250 3827.6 250ZM3825.97 257.296C3824.12 257.296 3822.23 258 3820.31 259.408C3818.45 260.752 3816.82 262.608 3815.41 264.976V288.496C3816.76 289.584 3818.23 290.448 3819.83 291.088C3821.49 291.664 3823 291.952 3824.34 291.952C3829.59 291.952 3832.21 288.624 3832.21 281.968V267.184C3832.21 260.592 3830.13 257.296 3825.97 257.296ZM3873.17 250C3877.2 250 3880.33 251.376 3882.57 254.128C3884.81 256.88 3885.93 260.848 3885.93 266.032V283.12C3885.93 288.112 3884.62 292.048 3882 294.928C3879.44 297.744 3875.95 299.152 3871.53 299.152C3869.87 299.152 3868.08 298.8 3866.16 298.096C3864.3 297.456 3862.57 296.688 3860.97 295.792V315.76H3852.81V251.152H3860.49V257.968C3864.01 252.656 3868.24 250 3873.17 250ZM3871.53 257.296C3869.68 257.296 3867.79 258 3865.87 259.408C3864.01 260.752 3862.38 262.608 3860.97 264.976V288.496C3862.32 289.584 3863.79 290.448 3865.39 291.088C3867.05 291.664 3868.56 291.952 3869.9 291.952C3875.15 291.952 3877.77 288.624 3877.77 281.968V267.184C3877.77 260.592 3875.69 257.296 3871.53 257.296ZM3914.31 250C3920.01 250 3924.23 251.536 3926.98 254.608C3929.8 257.616 3931.21 261.904 3931.21 267.472V281.68C3931.21 287.248 3929.8 291.568 3926.98 294.64C3924.23 297.648 3920.01 299.152 3914.31 299.152C3908.62 299.152 3904.36 297.648 3901.54 294.64C3898.79 291.568 3897.42 287.248 3897.42 281.68V267.472C3897.42 261.904 3898.79 257.616 3901.54 254.608C3904.36 251.536 3908.62 250 3914.31 250ZM3914.31 256.816C3911.56 256.816 3909.42 257.68 3907.88 259.408C3906.34 261.136 3905.58 263.6 3905.58 266.8V282.352C3905.58 285.552 3906.34 288.016 3907.88 289.744C3909.42 291.472 3911.56 292.336 3914.31 292.336C3917.06 292.336 3919.21 291.472 3920.74 289.744C3922.28 288.016 3923.05 285.552 3923.05 282.352V266.704C3923.05 263.504 3922.28 261.072 3920.74 259.408C3919.21 257.68 3917.06 256.816 3914.31 256.816ZM3964.11 250C3965 250 3965.71 250.064 3966.22 250.192V259.408C3965.26 259.216 3964.01 259.12 3962.47 259.12C3957.99 259.12 3954.44 261.36 3951.82 265.84V298H3943.66V251.152H3951.34V258.16C3953.07 255.536 3954.99 253.52 3957.1 252.112C3959.27 250.704 3961.61 250 3964.11 250ZM3986.73 251.152H3999.21V257.872H3986.73V285.328C3986.73 287.76 3987.21 289.52 3988.17 290.608C3989.19 291.632 3990.76 292.144 3992.87 292.144C3995.56 292.144 3998.18 291.824 4000.74 291.184L4000.93 298C3998.12 298.768 3995.56 299.152 3993.25 299.152C3988.13 299.152 3984.39 298.032 3982.02 295.792C3979.72 293.488 3978.57 289.776 3978.57 284.656V257.872H3971.85V251.152H3978.57L3980.1 238.672H3986.73V251.152Z" fill="white"/>
<circle cx="683.5" cy="829.5" r="185" fill="#09244B" stroke="white" stroke-width="11"/>
<circle cx="3856.5" cy="581.5" r="185" fill="#09244B" stroke="white" stroke-width="11"/>
<circle cx="1418.5" cy="763.5" r="251" fill="#09244B" stroke="white" stroke-width="11"/>
<circle cx="3136.5" cy="647.5" r="251" fill="#09244B" stroke="white" stroke-width="11"/>
<line x1="2277" y1="395.5" x2="3871" y2="395.5" stroke="white" stroke-width="11"/>
<line x1="683" y1="1014.5" x2="2277" y2="1014.5" stroke="white" stroke-width="11"/>
<path d="M1064.5 1006.71C1070.5 1010.17 1070.5 1018.83 1064.5 1022.29L1002.25 1058.23C996.25 1061.7 988.75 1057.37 988.75 1050.44V978.56C988.75 971.632 996.25 967.302 1002.25 970.766L1064.5 1006.71Z" fill="#FFF7F7"/>
<path d="M1865.5 1006.71C1871.5 1010.17 1871.5 1018.83 1865.5 1022.29L1803.25 1058.23C1797.25 1061.7 1789.75 1057.37 1789.75 1050.44V978.56C1789.75 971.632 1797.25 967.302 1803.25 970.766L1865.5 1006.71Z" fill="#FFF7F7"/>
<path d="M2782.5 387.706C2788.5 391.17 2788.5 399.83 2782.5 403.294L2720.25 439.234C2714.25 442.698 2706.75 438.368 2706.75 431.44V359.56C2706.75 352.632 2714.25 348.302 2720.25 351.766L2782.5 387.706Z" fill="#FFF7F7"/>
<path d="M3575.5 387.706C3581.5 391.17 3581.5 399.83 3575.5 403.294L3513.25 439.234C3507.25 442.698 3499.75 438.368 3499.75 431.44V359.56C3499.75 352.632 3507.25 348.302 3513.25 351.766L3575.5 387.706Z" fill="#FFF7F7"/>
</svg>
